# Blender 5.1.1
# www.blender.org
mtllib metal_shelf.mtl
o Cube.003
v -0.273565 9.521902 13.503418
v -0.273565 18.063776 13.503418
v -0.273565 14.966394 8.910465
v 0.155436 14.966394 9.339466
v 0.155436 9.521902 13.503418
v 0.155436 18.063776 13.503418
v 0.155436 9.521902 13.074417
v 0.155436 18.063776 13.074417
v 0.155436 9.521903 9.339466
v 0.155436 18.063774 9.339466
v 0.155436 14.966394 8.910465
v 0.155436 14.966394 13.074417
v 0.155436 9.521903 8.910465
v 0.155436 18.063774 8.910465
v -0.273565 9.521903 8.910465
v -0.273565 18.063774 8.910465
v -2.829815 9.521904 13.074417
v -2.829815 18.063774 13.074417
v -2.829815 14.966393 13.503418
v 0.155436 14.966394 13.503418
v -2.829815 9.521904 13.503418
v -2.829815 18.063774 13.503418
v -2.400813 9.521904 13.503418
v -2.400813 18.063774 13.503418
v -2.369207 9.521902 8.910465
v -2.369207 18.063776 8.910465
v -2.829815 14.966393 13.074417
v -0.273565 14.966394 13.503418
v -2.798208 9.521902 8.910465
v -2.798208 18.063776 8.910465
v -2.798208 9.521902 9.339466
v -2.798208 18.063776 9.339466
v -2.400813 14.966393 13.503418
v -2.369207 14.966394 8.910465
v -2.798208 14.966394 8.910465
v -2.798208 14.966394 9.339466
v -0.273565 13.023948 8.910465
v 0.155436 13.023948 9.339466
v 0.155436 13.023948 8.910465
v 0.155436 13.023949 13.074417
v -2.829815 13.023947 13.503418
v 0.155436 13.023949 13.503418
v -2.829815 13.023947 13.074417
v -0.273565 13.023949 13.503418
v -2.400813 13.023947 13.503418
v -2.369207 13.023949 8.910465
v -2.798208 13.023949 8.910465
v -2.798208 13.023949 9.339466
v -0.273565 11.283356 8.910465
v 0.155436 11.283356 9.339466
v 0.155436 11.283356 8.910465
v 0.155436 11.283357 13.074417
v -2.829815 11.283355 13.503418
v 0.155436 11.283357 13.503418
v -2.829815 11.283355 13.074417
v -0.273565 11.283357 13.503418
v -2.400813 11.283355 13.503418
v -2.369207 11.283357 8.910465
v -2.798208 11.283357 8.910465
v -2.798208 11.283357 9.339466
v -0.273565 16.466545 8.910465
v 0.155436 16.466545 9.339466
v 0.155436 16.466545 8.910465
v 0.155436 16.466545 13.074417
v -2.829815 16.466543 13.503418
v 0.155436 16.466545 13.503418
v -2.829815 16.466543 13.074417
v -0.273565 16.466545 13.503418
v -2.400813 16.466543 13.503418
v -2.369207 16.466545 8.910465
v -2.798208 16.466545 8.910465
v -2.798208 16.466545 9.339466
v -0.273565 9.560102 13.502459
v -0.273565 18.025576 13.502459
v -0.273565 14.923685 8.910465
v 0.155436 14.923685 9.339466
v 0.154198 9.546560 13.502180
v 0.154198 18.039118 13.502180
v 0.154477 9.560102 13.074417
v 0.154477 18.025576 13.074417
v 0.154477 9.560103 9.339466
v 0.154477 18.025574 9.339466
v 0.155436 14.923685 8.910465
v 0.155436 14.923685 13.074417
v 0.154198 9.546561 8.911703
v 0.154198 18.039116 8.911703
v -0.273565 9.560103 8.911425
v -0.273565 18.025574 8.911425
v -2.828853 9.560083 13.074417
v -2.828853 18.025595 13.074417
v -2.829815 14.923683 13.503418
v 0.155436 14.923685 13.503418
v -2.828576 9.546562 13.502180
v -2.828576 18.039116 13.502180
v -2.400813 9.560104 13.502459
v -2.400813 18.025574 13.502459
v -2.369207 9.560102 8.911425
v -2.369207 18.025576 8.911425
v -2.829815 14.923683 13.074417
v -0.273565 14.923685 13.503418
v -2.796970 9.546560 8.911703
v -2.796970 18.039118 8.911703
v -2.797247 9.560082 9.339466
v -2.797247 18.025597 9.339466
v -2.400813 14.923683 13.503418
v -2.369207 14.923685 8.910465
v -2.798208 14.923685 8.910465
v -2.798208 14.923685 9.339466
v -0.273565 12.981238 8.910465
v 0.155436 12.981238 9.339466
v 0.155436 12.981238 8.910465
v 0.155436 12.981239 13.074417
v -2.829815 12.981237 13.503418
v 0.155436 12.981239 13.503418
v -2.829815 12.981237 13.074417
v -0.273565 12.981239 13.503418
v -2.400813 12.981237 13.503418
v -2.369207 12.981239 8.910465
v -2.798208 12.981239 8.910465
v -2.798208 12.981239 9.339466
v -0.273565 11.240646 8.910465
v 0.155436 11.240646 9.339466
v 0.155436 11.240646 8.910465
v 0.155436 11.240647 13.074417
v -2.829815 11.240645 13.503418
v 0.155436 11.240647 13.503418
v -2.829815 11.240645 13.074417
v -0.273565 11.240647 13.503418
v -2.400813 11.240645 13.503418
v -2.369207 11.240647 8.910465
v -2.798208 11.240647 8.910465
v -2.798208 11.240647 9.339466
v -0.273565 16.423836 8.910465
v 0.155436 16.423836 9.339466
v 0.155436 16.423836 8.910465
v 0.155436 16.423836 13.074417
v -2.829815 16.423834 13.503418
v 0.155436 16.423836 13.503418
v -2.829815 16.423834 13.074417
v -0.273565 16.423836 13.503418
v -2.400813 16.423834 13.503418
v -2.369207 16.423836 8.910465
v -2.798208 16.423836 8.910465
v -2.798208 16.423836 9.339466
vn 1.0000 -0.0000 -0.0000
vn -0.0000 -0.0000 1.0000
vn -0.0000 -1.0000 -0.0000
vn -0.0000 -0.0000 -1.0000
vn -0.0000 1.0000 -0.0000
vn -1.0000 -0.0000 -0.0000
vn -1.0000 -0.0000 -0.0007
vn -0.0007 -0.0000 -1.0000
vn -0.0007 -0.0000 1.0000
vn -1.0000 -0.0000 0.0007
vn 0.0007 -0.0000 -1.0000
vn 1.0000 -0.0000 -0.0006
vn 1.0000 -0.0000 0.0006
vn 0.0007 -0.0000 1.0000
vn -0.0000 -0.0251 0.9997
vn -0.9996 -0.0252 -0.0085
vn 0.9997 -0.0251 -0.0000
vn -1.0000 -0.0000 -0.0085
vn -0.0000 -0.0251 -0.9997
vn -0.0000 0.0251 0.9997
vn -0.9996 0.0252 -0.0085
vn -0.0000 0.0251 -0.9997
vn 0.9997 0.0251 -0.0000
vt 1.000000 0.045713
vt 0.954287 0.045713
vt 0.954287 0.000000
vt 1.000000 0.000000
vt 1.000000 0.091425
vt 0.954287 0.091425
vt 0.954287 0.045713
vt 1.000000 0.045713
vt 0.045713 0.000000
vt 0.272383 0.000000
vt 0.318096 0.000000
vt 0.318096 0.045713
vt 0.314728 0.443693
vt 0.314728 0.489406
vt 0.269015 0.489406
vt 0.045713 0.489406
vt 0.000000 0.489406
vt 0.000000 0.443693
vt 0.000000 0.045713
vt 0.000000 0.000000
vt 1.000000 0.274276
vt 0.954287 0.274276
vt 0.954287 0.228563
vt 1.000000 0.228563
vt 1.000000 0.182850
vt 0.954287 0.182850
vt 0.954287 0.137138
vt 1.000000 0.137138
vt 0.321464 0.443693
vt 0.363808 0.000000
vt 0.590479 0.000000
vt 0.636192 0.000000
vt 0.636192 0.045713
vt 0.636192 0.443693
vt 0.636192 0.489406
vt 0.590479 0.489406
vt 0.367176 0.489406
vt 0.321464 0.489406
vt 1.000000 0.319988
vt 0.954287 0.319988
vt 0.954287 0.274276
vt 1.000000 0.274276
vt 1.000000 0.365701
vt 0.954287 0.365701
vt 0.954287 0.319988
vt 1.000000 0.319988
vt 0.003368 0.933099
vt 0.000000 0.535118
vt 0.000000 0.489406
vt 0.045713 0.489406
vt 0.272383 0.489406
vt 0.318096 0.489406
vt 0.318096 0.535118
vt 0.318096 0.933099
vt 0.318096 0.978812
vt 0.272383 0.978812
vt 0.049080 0.978812
vt 0.003368 0.978812
vt 0.321464 0.933099
vt 0.363808 0.489406
vt 0.590479 0.489406
vt 0.636192 0.489406
vt 0.636192 0.535118
vt 0.636192 0.933099
vt 0.636192 0.978812
vt 0.590479 0.978812
vt 0.367176 0.978812
vt 0.321464 0.978812
vt 1.000000 0.137138
vt 0.954287 0.137138
vt 0.954287 0.091425
vt 1.000000 0.091425
vt 1.000000 0.228563
vt 0.954287 0.228563
vt 1.000000 0.182850
vt 0.639559 0.443693
vt 0.636192 0.045713
vt 0.636192 0.000000
vt 0.681904 0.000000
vt 0.908575 0.000000
vt 0.954287 0.000000
vt 0.954287 0.443693
vt 0.954287 0.489406
vt 0.908575 0.489406
vt 0.685272 0.489406
vt 0.639559 0.489406
vt 0.639559 0.933099
vt 0.636192 0.535118
vt 0.636192 0.489406
vt 0.681904 0.489406
vt 0.908575 0.489406
vt 0.954287 0.489406
vt 0.954287 0.535118
vt 0.954287 0.933099
vt 0.954287 0.978812
vt 0.908575 0.978812
vt 0.685272 0.978812
vt 0.639559 0.978812
s 0
usemtl Material.007
f 7/1/1 8/2/1 6/3/1 5/4/1
f 5/5/2 6/6/2 2/7/2 1/8/2
f 1/9/3 23/10/3 21/11/3 17/12/3 31/13/3 29/14/3 25/15/3 15/16/3 13/17/3 9/18/3 7/19/3 5/20/3
f 15/21/4 16/22/4 14/23/4 13/24/4
f 13/25/1 14/26/1 10/27/1 9/28/1
f 60/29/5 55/12/5 53/11/5 57/30/5 56/31/5 54/32/5 52/33/5 50/34/5 51/35/5 49/36/5 58/37/5 59/38/5
f 23/39/2 24/40/2 22/41/2 21/42/2
f 21/43/6 22/44/6 18/45/6 17/46/6
f 48/47/5 43/48/5 41/49/5 45/50/5 44/51/5 42/52/5 40/53/5 38/54/5 39/55/5 37/56/5 46/57/5 47/58/5
f 32/59/5 18/53/5 22/52/5 24/60/5 2/61/5 6/62/5 8/63/5 10/64/5 14/65/5 16/66/5 26/67/5 30/68/5
f 31/69/6 32/70/6 30/71/6 29/72/6
f 29/73/4 30/74/4 26/26/4 25/75/4
f 36/76/5 27/77/5 19/78/5 33/79/5 28/80/5 20/81/5 12/2/5 4/82/5 11/83/5 3/84/5 34/85/5 35/86/5
f 72/87/5 67/88/5 65/89/5 69/90/5 68/91/5 66/92/5 64/93/5 62/94/5 63/95/5 61/96/5 70/97/5 71/98/5
f 79/1/7 77/4/7 78/3/7 80/2/7
f 77/5/8 73/8/8 74/7/8 78/6/8
f 73/9/5 77/20/5 79/19/5 81/18/5 85/17/5 87/16/5 97/15/5 101/14/5 103/13/5 89/12/5 93/11/5 95/10/5
f 87/21/9 85/24/9 86/23/9 88/22/9
f 85/25/10 81/28/10 82/27/10 86/26/10
f 132/29/3 131/38/3 130/37/3 121/36/3 123/35/3 122/34/3 124/33/3 126/32/3 128/31/3 129/30/3 125/11/3 127/12/3
f 95/39/11 93/42/11 94/41/11 96/40/11
f 93/43/12 89/46/12 90/45/12 94/44/12
f 120/47/3 119/58/3 118/57/3 109/56/3 111/55/3 110/54/3 112/53/3 114/52/3 116/51/3 117/50/3 113/49/3 115/48/3
f 104/59/3 102/68/3 98/67/3 88/66/3 86/65/3 82/64/3 80/63/3 78/62/3 74/61/3 96/60/3 94/52/3 90/53/3
f 103/69/13 101/72/13 102/71/13 104/70/13
f 101/73/14 97/75/14 98/26/14 102/74/14
f 108/76/3 107/86/3 106/85/3 75/84/3 83/83/3 76/82/3 84/2/3 92/81/3 100/80/3 105/79/3 91/78/3 99/77/3
f 144/87/3 143/98/3 142/97/3 133/96/3 135/95/3 134/94/3 136/93/3 138/92/3 140/91/3 141/90/3 137/89/3 139/88/3
f 35/86/4 34/85/4 106/85/4 107/86/4
f 1/8/6 2/7/6 74/7/6 73/8/6
f 36/76/6 35/86/6 107/86/6 108/76/6
f 2/61/15 24/60/15 96/60/15 74/61/15
f 34/85/4 3/84/4 75/84/4 106/85/4
f 8/2/4 7/1/4 79/1/4 80/2/4
f 19/78/6 27/77/6 99/77/6 91/78/6
f 9/28/2 10/27/2 82/27/2 81/28/2
f 33/79/2 19/78/2 91/78/2 105/79/2
f 18/53/16 32/59/16 104/59/16 90/53/16
f 4/82/1 12/2/1 84/2/1 76/82/1
f 16/22/6 15/21/6 87/21/6 88/22/6
f 10/64/17 8/63/17 80/63/17 82/64/17
f 17/46/4 18/45/4 90/45/4 89/46/4
f 11/83/1 4/82/1 76/82/1 83/83/1
f 3/84/4 11/83/4 83/83/4 75/84/4
f 27/77/18 36/76/18 108/76/18 99/77/18
f 24/40/1 23/39/1 95/39/1 96/40/1
f 26/67/19 16/66/19 88/66/19 98/67/19
f 25/75/1 26/26/1 98/26/1 97/75/1
f 20/81/2 28/80/2 100/80/2 92/81/2
f 12/2/1 20/81/1 92/81/1 84/2/1
f 28/80/2 33/79/2 105/79/2 100/80/2
f 32/70/2 31/69/2 103/69/2 104/70/2
f 41/49/6 43/48/6 115/48/6 113/49/6
f 23/10/20 1/9/20 73/9/20 95/10/20
f 46/57/4 37/56/4 109/56/4 118/57/4
f 31/13/21 17/12/21 89/12/21 103/13/21
f 15/16/22 25/15/22 97/15/22 87/16/22
f 48/47/6 47/58/6 119/58/6 120/47/6
f 7/19/23 9/18/23 81/18/23 79/19/23
f 47/58/4 46/57/4 118/57/4 119/58/4
f 45/50/2 41/49/2 113/49/2 117/50/2
f 38/54/1 40/53/1 112/53/1 110/54/1
f 39/55/1 38/54/1 110/54/1 111/55/1
f 37/56/4 39/55/4 111/55/4 109/56/4
f 43/48/18 48/47/18 120/47/18 115/48/18
f 42/52/2 44/51/2 116/51/2 114/52/2
f 40/53/1 42/52/1 114/52/1 112/53/1
f 44/51/2 45/50/2 117/50/2 116/51/2
f 53/11/6 55/12/6 127/12/6 125/11/6
f 58/37/4 49/36/4 121/36/4 130/37/4
f 60/29/6 59/38/6 131/38/6 132/29/6
f 59/38/4 58/37/4 130/37/4 131/38/4
f 57/30/2 53/11/2 125/11/2 129/30/2
f 50/34/1 52/33/1 124/33/1 122/34/1
f 51/35/1 50/34/1 122/34/1 123/35/1
f 49/36/4 51/35/4 123/35/4 121/36/4
f 55/12/18 60/29/18 132/29/18 127/12/18
f 54/32/2 56/31/2 128/31/2 126/32/2
f 52/33/1 54/32/1 126/32/1 124/33/1
f 56/31/2 57/30/2 129/30/2 128/31/2
f 71/98/4 70/97/4 142/97/4 143/98/4
f 72/87/6 71/98/6 143/98/6 144/87/6
f 70/97/4 61/96/4 133/96/4 142/97/4
f 65/89/6 67/88/6 139/88/6 137/89/6
f 69/90/2 65/89/2 137/89/2 141/90/2
f 62/94/1 64/93/1 136/93/1 134/94/1
f 63/95/1 62/94/1 134/94/1 135/95/1
f 61/96/4 63/95/4 135/95/4 133/96/4
f 67/88/18 72/87/18 144/87/18 139/88/18
f 66/92/2 68/91/2 140/91/2 138/92/2
f 64/93/1 66/92/1 138/92/1 136/93/1
f 68/91/2 69/90/2 141/90/2 140/91/2
