# Blender 5.1.1
# www.blender.org
mtllib egg.mtl.mtl
o Cube.002
v 0.588659 34.024715 -6.720608
v 0.588659 34.581310 -6.720608
v 0.588659 34.024715 -11.753374
v 0.588659 34.581310 -11.753374
v 5.354856 34.024715 -6.720608
v 5.354856 34.581310 -6.720608
v 5.354856 34.024715 -11.753374
v 5.354856 34.581310 -11.753374
v 4.453261 30.473881 -10.923479
v 4.453261 34.492641 -10.923479
v 4.453261 30.473881 -11.561863
v 4.453261 34.492641 -11.561863
v 5.091645 30.473881 -10.923479
v 5.091645 34.492641 -10.923479
v 5.091645 30.473881 -11.561863
v 5.091645 34.492641 -11.561863
v 0.811159 30.473881 -10.923479
v 0.811159 39.579865 -10.923479
v 0.811159 30.473881 -11.561863
v 0.811159 39.579865 -11.561863
v 1.449543 30.473881 -10.923479
v 1.449543 39.579865 -10.923479
v 1.449543 30.473881 -11.561863
v 1.449543 39.579865 -11.561863
v 0.811159 30.473881 -6.912119
v 0.811159 39.579865 -6.912119
v 0.811159 30.473881 -7.550503
v 0.811159 39.579865 -7.550503
v 1.449543 30.473881 -6.912119
v 1.449543 39.579865 -6.912119
v 1.449543 30.473881 -7.550503
v 1.449543 39.579865 -7.550503
v 4.453261 30.473881 -6.912119
v 4.453261 34.492641 -6.912119
v 4.453261 30.473881 -7.550503
v 4.453261 34.492641 -7.550503
v 5.091645 30.473881 -6.912119
v 5.091645 34.492641 -6.912119
v 5.091645 30.473881 -7.550503
v 5.091645 34.492641 -7.550503
v 0.840224 38.291622 -7.541115
v 0.840224 38.888271 -7.541115
v 0.840224 38.291622 -10.934889
v 0.840224 38.888271 -10.934889
v 1.415210 38.291622 -7.541115
v 1.415210 38.888271 -7.541115
v 1.415210 38.291622 -10.934889
v 1.415210 38.888271 -10.934889
v 0.840224 37.118526 -7.541115
v 0.840224 37.715176 -7.541115
v 0.840224 37.118526 -10.934889
v 0.840224 37.715176 -10.934889
v 1.415210 37.118526 -7.541115
v 1.415210 37.715176 -7.541115
v 1.415210 37.118526 -10.934889
v 1.415210 37.715176 -10.934889
v 0.840224 35.999069 -7.541115
v 0.840224 36.595718 -7.541115
v 0.840224 35.999069 -10.934889
v 0.840224 36.595718 -10.934889
v 1.415210 35.999069 -7.541115
v 1.415210 36.595718 -7.541115
v 1.415210 35.999069 -10.934889
v 1.415210 36.595718 -10.934889
vn -1.0000 -0.0000 -0.0000
vn -0.0000 -0.0000 -1.0000
vn 1.0000 -0.0000 -0.0000
vn -0.0000 -0.0000 1.0000
vn -0.0000 -1.0000 -0.0000
vn -0.0000 1.0000 -0.0000
vt 0.400578 0.711911
vt 0.361211 0.711911
vt 0.361211 0.355955
vt 0.400578 0.355955
vt 0.479311 0.693057
vt 0.439945 0.693057
vt 0.439945 0.355955
vt 0.479311 0.355955
vt 0.439945 0.711911
vt 0.400578 0.711911
vt 0.400578 0.355955
vt 0.439945 0.355955
vt 0.518678 0.693057
vt 0.479311 0.693057
vt 0.479312 0.355956
vt 0.518678 0.355956
vt 0.337102 0.355956
vt 0.000000 0.355956
vt 0.000000 0.000000
vt 0.337102 0.000000
vt 0.674204 0.355956
vt 0.337102 0.355956
vt 0.337102 0.000000
vt 0.674204 0.000000
vt 0.518678 0.640193
vt 0.518678 0.355956
vt 0.563830 0.355956
vt 0.563830 0.640193
vt 0.608981 0.355956
vt 0.608981 0.640193
vt 0.608981 0.640193
vt 0.608981 0.355956
vt 0.654132 0.355956
vt 0.654132 0.640193
vt 0.674204 0.284237
vt 0.674204 -0.000000
vt 0.719355 -0.000000
vt 0.719355 0.284237
vt 0.894057 0.900706
vt 0.894057 0.945858
vt 0.848906 0.945858
vt 0.848906 0.900706
vt 0.894057 0.945858
vt 0.894057 0.991009
vt 0.848906 0.991009
vt 0.848906 0.945858
vt 0.000000 1.000000
vt 0.000000 0.355956
vt 0.045151 0.355956
vt 0.045151 1.000000
vt 0.045151 1.000000
vt 0.045151 0.355956
vt 0.090303 0.355956
vt 0.090303 1.000000
vt 0.090303 1.000000
vt 0.090303 0.355956
vt 0.135454 0.355956
vt 0.135454 1.000000
vt 0.180605 0.355956
vt 0.180605 1.000000
vt 0.894057 0.720101
vt 0.894057 0.765252
vt 0.848906 0.765252
vt 0.848906 0.720101
vt 0.894057 0.810403
vt 0.848906 0.810403
vt 0.225757 0.355956
vt 0.225757 1.000000
vt 0.270908 0.355956
vt 0.270908 1.000000
vt 0.316060 0.355956
vt 0.316060 1.000000
vt 0.361211 0.355956
vt 0.361211 1.000000
vt 0.894057 0.810403
vt 0.894057 0.855555
vt 0.848906 0.855555
vt 0.848906 0.810403
vt 0.894057 0.855555
vt 0.848906 0.900706
vt 0.848906 0.855555
vt 0.674204 0.568475
vt 0.674204 0.284237
vt 0.719355 0.284237
vt 0.719355 0.568475
vt 0.674204 0.852712
vt 0.674204 0.568475
vt 0.719355 0.568475
vt 0.719355 0.852712
vt 0.764506 -0.000000
vt 0.764506 0.284237
vt 0.719355 0.568475
vt 0.764506 0.568475
vt 0.939208 0.000000
vt 0.939208 0.045151
vt 0.894057 0.045151
vt 0.894057 -0.000000
vt 0.939208 0.090303
vt 0.894057 0.090303
vt 0.806706 0.960134
vt 0.764506 0.960134
vt 0.764506 0.720101
vt 0.806706 0.720101
vt 0.894057 0.301301
vt 0.894057 0.259101
vt 0.934724 0.259101
vt 0.934724 0.301301
vt 0.848906 0.240034
vt 0.806706 0.240034
vt 0.806706 0.000000
vt 0.848906 0.000000
vt 0.894057 0.343500
vt 0.894057 0.301301
vt 0.934724 0.301301
vt 0.934724 0.343500
vt 0.847373 0.480067
vt 0.806706 0.480067
vt 0.806706 0.240034
vt 0.847373 0.240034
vt 0.847373 0.720101
vt 0.806706 0.720101
vt 0.806706 0.480067
vt 0.847373 0.480067
vt 0.806706 0.480067
vt 0.764506 0.480067
vt 0.764506 0.240034
vt 0.806706 0.240034
vt 0.894057 0.132502
vt 0.894057 0.090303
vt 0.934724 0.090303
vt 0.934724 0.132502
vt 0.806706 0.720101
vt 0.764506 0.720101
vt 0.764506 0.480067
vt 0.806706 0.480067
vt 0.894057 0.174702
vt 0.934724 0.174702
vt 0.847373 0.960134
vt 0.806706 0.960134
vt 0.806706 0.720101
vt 0.847373 0.720101
vt 0.889573 0.240034
vt 0.848906 0.240034
vt 0.848906 0.000000
vt 0.889573 0.000000
vt 0.761555 0.808508
vt 0.719355 0.808508
vt 0.761555 0.568475
vt 0.894057 0.216902
vt 0.894057 0.174702
vt 0.934724 0.174702
vt 0.934724 0.216902
vt 0.806706 0.240034
vt 0.764506 0.240034
vt 0.764506 0.000000
vt 0.806706 0.000000
vt 0.889573 0.480067
vt 0.848906 0.480067
vt 0.889573 0.720101
vt 0.848906 0.720101
vt 0.848906 0.480067
vt 0.889573 0.480067
s 0
usemtl Material.008
f 1/1/1 2/2/1 4/3/1 3/4/1
f 3/5/2 4/6/2 8/7/2 7/8/2
f 7/9/3 8/10/3 6/11/3 5/12/3
f 5/13/4 6/14/4 2/15/4 1/16/4
f 3/17/5 7/18/5 5/19/5 1/20/5
f 8/21/6 4/22/6 2/23/6 6/24/6
f 9/25/1 10/26/1 12/27/1 11/28/1
f 11/28/2 12/27/2 16/29/2 15/30/2
f 15/31/3 16/32/3 14/33/3 13/34/3
f 13/35/4 14/36/4 10/37/4 9/38/4
f 11/39/5 15/40/5 13/41/5 9/42/5
f 16/43/6 12/44/6 10/45/6 14/46/6
f 17/47/1 18/48/1 20/49/1 19/50/1
f 19/51/2 20/52/2 24/53/2 23/54/2
f 23/55/3 24/56/3 22/57/3 21/58/3
f 21/58/4 22/57/4 18/59/4 17/60/4
f 19/61/5 23/62/5 21/63/5 17/64/5
f 24/62/6 20/65/6 18/66/6 22/63/6
f 25/60/1 26/59/1 28/67/1 27/68/1
f 27/68/2 28/67/2 32/69/2 31/70/2
f 31/70/3 32/69/3 30/71/3 29/72/3
f 29/72/4 30/71/4 26/73/4 25/74/4
f 27/75/5 31/76/5 29/77/5 25/78/5
f 32/79/6 28/39/6 26/80/6 30/81/6
f 33/82/1 34/83/1 36/84/1 35/85/1
f 35/86/2 36/87/2 40/88/2 39/89/2
f 39/38/3 40/37/3 38/90/3 37/91/3
f 37/92/4 38/38/4 34/91/4 33/93/4
f 35/94/5 39/95/5 37/96/5 33/97/5
f 40/95/6 36/98/6 34/99/6 38/96/6
f 41/100/1 42/101/1 44/102/1 43/103/1
f 43/104/2 44/105/2 48/106/2 47/107/2
f 47/108/3 48/109/3 46/110/3 45/111/3
f 45/112/4 46/113/4 42/114/4 41/115/4
f 43/116/5 47/117/5 45/118/5 41/119/5
f 48/120/6 44/121/6 42/122/6 46/123/6
f 49/124/1 50/125/1 52/126/1 51/127/1
f 51/128/2 52/129/2 56/130/2 55/131/2
f 55/132/3 56/133/3 54/134/3 53/135/3
f 53/136/4 54/128/4 50/131/4 49/137/4
f 51/138/5 55/139/5 53/140/5 49/141/5
f 56/142/6 52/143/6 50/144/6 54/145/6
f 57/146/1 58/147/1 60/88/1 59/148/1
f 59/149/2 60/150/2 64/151/2 63/152/2
f 63/153/3 64/154/3 62/155/3 61/156/3
f 61/105/4 62/149/4 58/152/4 57/106/4
f 59/157/5 63/158/5 61/143/5 57/142/5
f 64/159/6 60/160/6 58/161/6 62/162/6
