# Blender 5.1.1
# www.blender.org
mtllib duvar_cerceve.mtl
o Cube
v -3.042756 18.888931 -40.585087
v -3.042756 25.570847 -40.585087
v -3.042756 18.888931 -45.492245
v -3.042756 25.570847 -45.492245
v -2.663458 18.888931 -40.585087
v -2.663458 25.570847 -40.585087
v -2.663458 18.888931 -45.492245
v -2.663458 25.570847 -45.492245
v -2.810359 25.346981 -45.327839
v -2.810359 19.112797 -45.327839
v -2.810359 19.112797 -40.749493
v -2.810359 25.346981 -40.749493
vn -1.0000 -0.0000 -0.0000
vn -0.0000 -0.0000 -1.0000
vn 0.8361 -0.5486 -0.0000
vn -0.0000 -0.0000 1.0000
vn -0.0000 -1.0000 -0.0000
vn -0.0000 1.0000 -0.0000
vn 1.0000 -0.0000 -0.0000
vn 0.7457 -0.0000 0.6663
vn 0.7457 -0.0000 -0.6663
vn 0.8361 0.5486 -0.0000
vt 0.000000 0.610098
vt 0.000000 0.000000
vt 0.448052 0.000000
vt 0.448052 0.610098
vt 0.896104 0.610098
vt 0.896104 0.000000
vt 0.930736 0.000000
vt 0.930736 0.610098
vt 0.448052 0.000000
vt 0.896104 0.000000
vt 0.881092 0.020440
vt 0.463063 0.020440
vt 0.930736 0.610098
vt 0.930736 0.000000
vt 0.965368 0.000000
vt 0.965368 0.610098
vt 1.000000 0.448052
vt 0.965368 0.448052
vt 0.965368 0.000000
vt 1.000000 0.000000
vt 1.000000 0.896104
vt 0.965368 0.896104
vt 0.463063 0.589657
vt 0.881092 0.589657
vt 0.448052 0.610098
vt 0.896104 0.610098
s 1
usemtl Material.004
f 1/1/1 2/2/1 4/3/1 3/4/1
f 3/5/2 4/6/2 8/7/2 7/8/2
f 8/9/3 6/10/3 12/11/3 9/12/3
f 5/13/4 6/14/4 2/15/4 1/16/4
f 3/17/5 7/18/5 5/19/5 1/20/5
f 8/21/6 4/22/6 2/18/6 6/17/6
f 7/25/8 8/9/8 9/12/8 10/23/8
f 6/10/9 5/26/9 11/24/9 12/11/9
f 5/26/10 7/25/10 10/23/10 11/24/10
usemtl Material.005
f 10/23/7 9/12/7 12/11/7 11/24/7
