# Blender 5.1.1
# www.blender.org
mtllib masa_cerceve.mtl
o Cube.001
v -8.801323 20.437544 -28.609652
v -9.627137 27.068230 -28.609652
v -8.801323 20.437544 -33.516808
v -9.627137 27.068230 -33.516808
v -8.424932 20.484421 -28.609652
v -9.250748 27.115107 -28.609652
v -8.424932 20.484421 -33.516808
v -9.250748 27.115107 -33.516808
v -9.368855 26.874802 -33.352402
v -8.598375 20.688416 -33.352402
v -8.598375 20.688416 -28.774057
v -9.368855 26.874802 -28.774057
v -12.853135 20.432905 -30.897242
v -9.154314 24.746254 -30.508347
v -12.853135 20.432905 -31.288841
v -9.154314 24.746254 -31.481472
v -12.461535 20.432596 -30.897242
v -9.133368 23.773354 -30.508347
v -12.461535 20.432596 -31.288841
v -9.133368 23.773354 -31.481472
vn -0.9923 -0.1236 -0.0000
vn -0.0000 -0.0000 -1.0000
vn 0.8975 -0.4411 -0.0000
vn -0.0000 -0.0000 1.0000
vn 0.1236 -0.9923 -0.0000
vn -0.1236 0.9923 -0.0000
vn 0.9923 0.1236 -0.0000
vn 0.7400 0.0922 0.6663
vn 0.7400 0.0922 -0.6663
vn 0.7619 0.6478 -0.0000
vn -0.7591 0.6510 -0.0000
vn -0.0375 -0.0159 -0.9992
vn 0.7084 -0.7058 -0.0000
vn -0.0755 -0.0320 0.9966
vn -0.0008 -1.0000 -0.0000
vn 0.9998 0.0215 -0.0000
vt 0.000000 0.562831
vt 0.000000 -0.000000
vt 0.413340 -0.000000
vt 0.413340 0.562831
vt 0.936133 0.916895
vt 0.936133 0.354073
vt 0.968076 0.354076
vt 0.968076 0.916899
vt 0.413340 0.000000
vt 0.826679 0.000000
vt 0.812831 0.019465
vt 0.427188 0.019465
vt 0.968076 0.916883
vt 0.968076 0.354087
vt 1.000000 0.354073
vt 1.000000 0.916869
vt 0.559144 0.975433
vt 0.527257 0.975433
vt 0.527257 0.562094
vt 0.559144 0.562094
vt 0.495308 0.562094
vt 0.527257 0.562094
vt 0.527257 0.975433
vt 0.495308 0.975433
vt 0.427188 0.543895
vt 0.812831 0.543895
vt 0.413340 0.562094
vt 0.826679 0.562094
vt 0.859437 0.354073
vt 0.826679 0.000000
vt 0.908647 0.000000
vt 0.892422 0.354073
vt 0.881431 0.832904
vt 0.881431 0.354073
vt 0.936133 0.415115
vt 0.906480 0.811452
vt 0.429565 0.859213
vt 0.413340 0.562094
vt 0.495308 0.562094
vt 0.462550 0.859213
vt 0.856406 0.812116
vt 0.826679 0.415060
vt 0.881431 0.354073
vt 0.881431 0.833568
vt 0.429565 0.892134
vt 0.462550 0.892134
vt 0.641005 0.644062
vt 0.559144 0.644062
vt 0.559144 0.562094
vt 0.641005 0.562094
s 1
usemtl Material.004
f 1/1/1 2/2/1 4/3/1 3/4/1
f 3/5/2 4/6/2 8/7/2 7/8/2
f 8/9/3 6/10/3 12/11/3 9/12/3
f 5/13/4 6/14/4 2/15/4 1/16/4
f 3/17/5 7/18/5 5/19/5 1/20/5
f 8/21/6 4/22/6 2/23/6 6/24/6
f 7/27/8 8/9/8 9/12/8 10/25/8
f 6/10/9 5/28/9 11/26/9 12/11/9
f 5/28/10 7/27/10 10/25/10 11/26/10
f 13/29/11 14/30/11 16/31/11 15/32/11
f 15/33/12 16/34/12 20/35/12 19/36/12
f 19/37/13 20/38/13 18/39/13 17/40/13
f 17/41/14 18/42/14 14/43/14 13/44/14
f 15/45/15 19/37/15 17/40/15 13/46/15
f 20/47/16 16/48/16 14/49/16 18/50/16
usemtl Material.005
f 10/25/7 9/12/7 12/11/7 11/26/7
