# Apple ModelIO OBJ File: calisma_masasi-1
mtllib calisma_masasi-1.mtl
g Cube.008
v 0.425057 0.56122 -11.2108
v 0.425057 2.01009 -11.2108
v 0.425057 2.01009 -12.4078
v 0.425057 0.56122 -12.4078
v 3.30056 0.56122 -12.4078
v 3.30056 2.01009 -12.4078
v 3.30056 2.01009 -11.2108
v 3.30056 0.56122 -11.2108
v 0.425057 1.49104 -11.2108
v 3.30056 1.49104 -11.2108
vn -1 -0 -0
vn 1 -0 -0
vn -0 -0 1
vn -0 1 -0
vt 0 1
vt 0 0.676483
vt 0.352966 0.676483
vt 0.352966 1
vt 0.352966 0
vt 0.352966 0.323517
vt 0 0.323517
vt 0 0
vt 0.37433 0.988899
vt 0.37433 0.004692
vt 0.6975 0.004692
vt 0.6975 0.988899
usemtl 
f 1/1/1 2/2/1 3/3/1
f 1/1/1 3/3/1 4/4/1
f 5/5/2 6/6/2 7/7/2
f 5/5/2 7/7/2 8/8/2
f 7/9/3 2/10/3 9/11/3
f 7/9/3 9/11/3 10/12/3
f 6/6/4 3/3/4 2/2/4
f 6/6/4 2/2/4 7/7/4
s off
