# Apple ModelIO OBJ File: saat
mtllib saat.mtl
g Circle.001
v 3.20642 5.78677 -13.6642
v 3.28254 5.40409 -13.6642
v 3.20642 5.02141 -13.6642
v 2.98965 6.1112 -13.6642
v 2.66523 6.32797 -13.6642
v 2.28254 6.40409 -13.6642
v 1.89986 6.32797 -13.6642
v 1.57544 6.1112 -13.6642
v 1.35866 5.78677 -13.6642
v 1.28254 5.40409 -13.6642
v 1.35866 5.02141 -13.6642
v 1.57544 4.69698 -13.6642
v 1.89986 4.48021 -13.6642
v 2.28254 4.40409 -13.6642
v 2.66523 4.48021 -13.6642
v 2.98965 4.69698 -13.6642
v 3.34546 5.40409 -13.5965
v 3.26455 5.81085 -13.5965
v 3.26455 5.81085 -13.0862
v 3.34546 5.40409 -13.0862
v 1.30053 4.99733 -13.5965
v 1.53094 4.65249 -13.5965
v 2.28254 6.46701 -13.5965
v 2.68931 6.3861 -13.5965
v 1.87578 4.42208 -13.5965
v 1.87578 6.3861 -13.5965
v 2.28254 4.34117 -13.5965
v 1.53094 6.15569 -13.5965
v 2.68931 4.42208 -13.5965
v 1.30053 5.81085 -13.5965
v 3.03414 4.65249 -13.5965
v 1.21962 5.40409 -13.5965
v 3.26455 4.99733 -13.5965
v 3.03414 6.15569 -13.5965
v 1.30053 5.81085 -13.0862
v 1.53094 6.15569 -13.0862
v 3.03414 6.15569 -13.0862
v 2.97944 6.10099 -13.0212
v 3.19309 5.78125 -13.0212
v 3.03414 4.65249 -13.0862
v 2.68931 4.42208 -13.0862
v 1.21962 5.40409 -13.0862
v 3.26455 4.99733 -13.0862
v 1.30053 4.99733 -13.0862
v 2.68931 6.3861 -13.0862
v 1.53094 4.65249 -13.0862
v 2.28254 6.46701 -13.0862
v 1.87578 4.42208 -13.0862
v 1.87578 6.3861 -13.0862
v 2.28254 4.34117 -13.0862
v 1.29697 5.40409 -13.0212
v 1.372 5.02693 -13.0212
v 3.19309 5.02693 -13.0212
v 3.26811 5.40409 -13.0212
v 2.97944 4.70719 -13.0212
v 2.6597 4.49354 -13.0212
v 2.28254 4.41852 -13.0212
v 1.90538 4.49354 -13.0212
v 1.58564 4.70719 -13.0212
v 1.372 5.78125 -13.0212
v 1.58564 6.10099 -13.0212
v 1.90538 6.31463 -13.0212
v 2.28254 6.38966 -13.0212
v 2.6597 6.31463 -13.0212
vn -0 -0 -1
vn 0.9808 0.1951 -0
vn -0.6145 -0.4106 -0.6737
vn 0.1442 0.7248 -0.6737
vn -0.4106 -0.6145 -0.6737
vn -0.1442 0.7248 -0.6737
vn -0.1442 -0.7248 -0.6737
vn -0.4106 0.6145 -0.6737
vn 0.1442 -0.7248 -0.6737
vn -0.6145 0.4106 -0.6737
vn 0.4106 -0.6145 -0.6737
vn 0.7248 0.1442 -0.6737
vn -0.7248 0.1442 -0.6737
vn 0.6145 -0.4106 -0.6737
vn 0.6145 0.4106 -0.6737
vn -0.7248 -0.1442 -0.6737
vn 0.7248 -0.1442 -0.6737
vn -0.8315 0.5556 -0
vn 0.5411 0.3615 0.7593
vn 0.5556 -0.8315 -0
vn -0.9808 0.1951 -0
vn 0.8315 -0.5556 -0
vn 0.8315 0.5556 -0
vn -0.9808 -0.1951 -0
vn 0.9808 -0.1951 -0
vn 0.5556 0.8315 -0
vn -0.8315 -0.5556 -0
vn 0.1951 0.9808 -0
vn -0.5556 -0.8315 -0
vn -0.1951 0.9808 -0
vn -0.1951 -0.9808 -0
vn -0.5556 0.8315 -0
vn 0.1951 -0.9808 -0
vn -0.6382 -0.127 0.7593
vn -0 -0 1
vn 0.6382 -0.127 0.7593
vn 0.3615 0.5411 0.7593
vn -0.5411 -0.3615 0.7593
vn 0.127 0.6382 0.7593
vn -0.3615 -0.5411 0.7593
vn -0.127 0.6382 0.7593
vn -0.127 -0.6382 0.7593
vn -0.3615 0.5411 0.7593
vn 0.127 -0.6382 0.7593
vn -0.5411 0.3615 0.7593
vn 0.3615 -0.5411 0.7593
vn 0.6382 0.127 0.7593
vn -0.6382 0.127 0.7593
vn 0.5411 -0.3615 0.7593
vn 0.4106 0.6145 -0.6737
vt 0.10508 0.963101
vt 0.036899 0.89492
vt 0 0.805837
vt 0.194163 1
vt 0.290586 1
vt 0.379669 0.963101
vt 0.44785 0.89492
vt 0.484749 0.805837
vt 0.484749 0.709414
vt 0.44785 0.620331
vt 0.379669 0.55215
vt 0.290586 0.515251
vt 0.194163 0.515251
vt 0.10508 0.55215
vt 0.036899 0.620331
vt 0 0.709414
vt 0.784165 0
vt 0.784165 0.072471
vt 0.658073 0.072471
vt 0.658073 0
vt 0.658073 0.445448
vt 0.658073 0.534531
vt 0.641343 0.436809
vt 0.641343 0.531497
vt 0.800895 0.266616
vt 0.800895 0.355698
vt 0.784165 0.364338
vt 0.784165 0.269649
vt 0.658073 0.630953
vt 0.641343 0.633987
vt 0.388308 0.97603
vt 0.460779 0.903559
vt 0.658073 0.720036
vt 0.641343 0.728675
vt 0.658073 0.08111
vt 0.658073 0.170193
vt 0.641343 0.16716
vt 0.641343 0.072471
vt 0.02397 0.611692
vt 0.096441 0.539221
vt 0.658073 0.266616
vt 0.641343 0.269649
vt 0.800895 0.372977
vt 0.800895 0.462059
vt 0.784165 0.459026
vt 0.096441 0.97603
vt 0.02397 0.903559
vt 0.658073 0.355699
vt 0.641343 0.364338
vt 0.800895 0.558482
vt 0.784165 0.561516
vt 0.800895 0.08111
vt 0.800895 0.170193
vt 0.784165 0.167159
vt 0.460779 0.611692
vt 0.388308 0.539221
vt 0.800895 0.647565
vt 0.784165 0.656204
vt 0.515251 0.269649
vt 0.515251 0.167159
vt 0 0.206381
vt 0.039221 0.111692
vt 0.055116 0.122313
vt 0.018749 0.21011
vt 0.658073 0.459026
vt 0.658073 0.364338
vt 0.515251 0.364338
vt 0.658073 0.561516
vt 0.658073 0.167159
vt 0.515251 0.436809
vt 0.658073 0.656204
vt 0.658073 0.269649
vt 0.515251 0.531497
vt 0.515251 0.633987
vt 0.641343 0
vt 0.515251 0.072471
vt 0.515251 0
vt 0.515251 0.728675
vt 0.641343 0.801146
vt 0.515251 0.801146
vt 0.515251 0.206381
vt 0.515251 0.30887
vt 0.496502 0.21011
vt 0.496502 0.305141
vt 0.055116 0.392938
vt 0.018749 0.305141
vt 0.122313 0.460135
vt 0.21011 0.496502
vt 0.305141 0.496502
vt 0.392938 0.460135
vt 0.460135 0.392938
vt 0.460135 0.122313
vt 0.392938 0.055116
vt 0.305141 0.018749
vt 0.21011 0.018749
vt 0.122313 0.055116
vt 0.039221 0.403559
vt -0 0.30887
vt 0.111692 0.039221
vt 0.47603 0.403559
vt 0.206381 0
vt 0.403559 0.47603
vt 0.30887 0
vt 0.30887 0.515251
vt 0.403559 0.039221
vt 0.206381 0.515251
vt 0.47603 0.111692
vt 0.111692 0.47603
usemtl 
f 1/1/1 2/2/1 3/3/1
f 4/4/1 1/1/1 3/3/1
f 5/5/1 4/4/1 3/3/1
f 6/6/1 5/5/1 3/3/1
f 7/7/1 6/6/1 3/3/1
f 8/8/1 7/7/1 3/3/1
f 9/9/1 8/8/1 3/3/1
f 10/10/1 9/9/1 3/3/1
f 11/11/1 10/10/1 3/3/1
f 12/12/1 11/11/1 3/3/1
f 13/13/1 12/12/1 3/3/1
f 14/14/1 13/13/1 3/3/1
f 15/15/1 14/14/1 3/3/1
f 16/16/1 15/15/1 3/3/1
f 17/17/2 18/18/2 19/19/2
f 17/17/2 19/19/2 20/20/2
f 11/21/3 12/22/3 21/23/3
f 12/22/3 22/24/3 21/23/3
f 5/25/4 6/26/4 23/27/4
f 5/25/4 23/27/4 24/28/4
f 12/22/5 13/29/5 25/30/5
f 12/22/5 25/30/5 22/24/5
f 6/6/6 7/7/6 23/31/6
f 7/7/6 26/32/6 23/31/6
f 13/29/7 14/33/7 25/30/7
f 14/33/7 27/34/7 25/30/7
f 7/35/8 8/36/8 28/37/8
f 7/35/8 28/37/8 26/38/8
f 14/14/9 15/15/9 29/39/9
f 14/14/9 29/39/9 27/40/9
f 8/36/10 9/41/10 28/37/10
f 9/41/10 30/42/10 28/37/10
f 15/43/11 16/44/11 31/45/11
f 15/43/11 31/45/11 29/27/11
f 2/2/12 1/1/12 18/46/12
f 2/2/12 18/46/12 17/47/12
f 9/41/13 10/48/13 32/49/13
f 9/41/13 32/49/13 30/42/13
f 16/44/14 3/50/14 33/51/14
f 16/44/14 33/51/14 31/45/14
f 1/52/15 4/53/15 18/18/15
f 4/53/15 34/54/15 18/18/15
f 10/10/16 11/11/16 32/55/16
f 11/11/16 21/56/16 32/55/16
f 3/50/17 2/57/17 33/51/17
f 2/57/17 17/58/17 33/51/17
f 28/37/18 30/42/18 35/59/18
f 28/37/18 35/59/18 36/60/18
f 19/61/19 37/62/19 38/63/19
f 19/61/19 38/63/19 39/64/19
f 29/27/20 31/45/20 40/65/20
f 29/27/20 40/65/20 41/66/20
f 30/42/21 32/49/21 42/67/21
f 30/42/21 42/67/21 35/59/21
f 31/45/22 33/51/22 43/68/22
f 31/45/22 43/68/22 40/65/22
f 18/18/23 34/54/23 37/69/23
f 18/18/23 37/69/23 19/19/23
f 32/49/24 21/23/24 44/70/24
f 32/49/24 44/70/24 42/67/24
f 33/51/25 17/58/25 20/71/25
f 33/51/25 20/71/25 43/68/25
f 34/54/26 24/28/26 45/72/26
f 34/54/26 45/72/26 37/69/26
f 21/23/27 22/24/27 46/73/27
f 21/23/27 46/73/27 44/70/27
f 24/28/28 23/27/28 47/66/28
f 24/28/28 47/66/28 45/72/28
f 22/24/29 25/30/29 48/74/29
f 22/24/29 48/74/29 46/73/29
f 23/75/30 26/38/30 49/76/30
f 23/75/30 49/76/30 47/77/30
f 25/30/31 27/34/31 50/78/31
f 25/30/31 50/78/31 48/74/31
f 26/38/32 28/37/32 36/60/32
f 26/38/32 36/60/32 49/76/32
f 27/34/33 29/79/33 41/80/33
f 27/34/33 41/80/33 50/78/33
f 42/81/34 44/82/34 51/83/34
f 44/82/34 52/84/34 51/83/34
f 53/85/35 54/86/35 39/64/35
f 55/87/35 53/85/35 39/64/35
f 56/88/35 55/87/35 39/64/35
f 57/89/35 56/88/35 39/64/35
f 58/90/35 57/89/35 39/64/35
f 59/91/35 58/90/35 39/64/35
f 52/84/35 59/91/35 39/64/35
f 51/83/35 52/84/35 39/64/35
f 60/92/35 51/83/35 39/64/35
f 61/93/35 60/92/35 39/64/35
f 62/94/35 61/93/35 39/64/35
f 63/95/35 62/94/35 39/64/35
f 64/96/35 63/95/35 39/64/35
f 38/63/35 64/96/35 39/64/35
f 43/97/36 20/98/36 54/86/36
f 43/97/36 54/86/36 53/85/36
f 37/62/37 45/99/37 38/63/37
f 45/99/37 64/96/37 38/63/37
f 44/82/38 46/100/38 59/91/38
f 44/82/38 59/91/38 52/84/38
f 45/99/39 47/101/39 63/95/39
f 45/99/39 63/95/39 64/96/39
f 46/100/40 48/102/40 59/91/40
f 48/102/40 58/90/40 59/91/40
f 47/101/41 49/103/41 63/95/41
f 49/103/41 62/94/41 63/95/41
f 48/102/42 50/104/42 57/89/42
f 48/102/42 57/89/42 58/90/42
f 49/103/43 36/105/43 61/93/43
f 49/103/43 61/93/43 62/94/43
f 50/104/44 41/106/44 57/89/44
f 41/106/44 56/88/44 57/89/44
f 36/105/45 35/107/45 61/93/45
f 35/107/45 60/92/45 61/93/45
f 41/106/46 40/108/46 55/87/46
f 41/106/46 55/87/46 56/88/46
f 20/98/47 19/61/47 54/86/47
f 19/61/47 39/64/47 54/86/47
f 35/107/48 42/81/48 51/83/48
f 35/107/48 51/83/48 60/92/48
f 40/108/49 43/97/49 55/87/49
f 43/97/49 53/85/49 55/87/49
f 4/53/50 5/25/50 24/28/50
f 4/53/50 24/28/50 34/54/50
s off
